<svg width="1240" height="760" viewBox="0 0 1240 760" fill="none" xmlns="http://www.w3.org/2000/svg">
  <rect width="1240" height="760" fill="#E9ECEF"/>
  <rect y="0" width="1240" height="26" fill="#FFFFFF"/>
  <text x="8" y="18" font-family="Segoe UI, Arial" font-size="13" fill="#111827">File</text>
  <text x="44" y="18" font-family="Segoe UI, Arial" font-size="13" fill="#111827">Actions</text>
  <text x="101" y="18" font-family="Segoe UI, Arial" font-size="13" fill="#111827">Tools</text>
  <text x="145" y="18" font-family="Segoe UI, Arial" font-size="13" fill="#111827">Help</text>
  <rect x="0.5" y="26.5" width="303" height="492" fill="#FFFFFF" stroke="#BFC7D1"/>
  <rect x="1" y="27" width="302" height="24" fill="#0875C9"/>
  <text x="8" y="44" font-family="Segoe UI, Arial" font-size="13" font-weight="600" fill="#FFFFFF">Configuration</text>
  <rect x="16" y="64" width="48" height="48" rx="2" fill="#E5E7EB" stroke="#AEB7C2"/>
  <text x="34" y="92" font-family="Segoe UI, Arial" font-size="26" font-weight="700" fill="#16A34A">+</text>
  <rect x="72" y="64" width="48" height="48" rx="2" fill="#E5E7EB" stroke="#AEB7C2"/>
  <rect x="128" y="64" width="48" height="48" rx="2" fill="#E5E7EB" stroke="#AEB7C2"/>
  <rect x="184" y="64" width="48" height="48" rx="2" fill="#E5E7EB" stroke="#AEB7C2"/>
  <rect x="240" y="64" width="48" height="48" rx="2" fill="#E5E7EB" stroke="#AEB7C2"/>
  <rect x="1" y="126" width="302" height="26" fill="#ECEFF3"/>
  <text x="8" y="144" font-family="Segoe UI, Arial" font-size="13" font-weight="600" fill="#111827">Name</text>
  <text x="196" y="144" font-family="Segoe UI, Arial" font-size="13" font-weight="600" fill="#111827">Last sync</text>
  <rect x="4" y="154" width="296" height="24" fill="#F7F7F7"/>
  <text x="10" y="171" font-family="Segoe UI, Arial" font-size="13" fill="#111827">↻ [Last session]</text>
  <text x="211" y="171" font-family="Segoe UI, Arial" font-size="13" fill="#111827">Today</text>
  <rect x="4" y="202" width="296" height="24" fill="#BFF6A0"/>
  <text x="10" y="219" font-family="Segoe UI, Arial" font-size="13" fill="#111827">↻ Backup Projects</text>
  <text x="211" y="219" font-family="Segoe UI, Arial" font-size="13" fill="#111827">Today</text>
  <rect x="0.5" y="524.5" width="303" height="209" fill="#FFFFFF" stroke="#BFC7D1"/>
  <rect x="1" y="525" width="302" height="24" fill="#0875C9"/>
  <text x="8" y="542" font-family="Segoe UI, Arial" font-size="13" font-weight="600" fill="#FFFFFF">Overview</text>
  <rect x="8" y="565" width="64" height="15" fill="#DCFCE7" stroke="#86EFAC"/>
  <rect x="8" y="590" width="42" height="15" fill="#DCFCE7" stroke="#86EFAC"/>
  <rect x="8" y="615" width="86" height="15" fill="#DCFCE7" stroke="#86EFAC"/>
  <text x="84" y="579" font-family="Segoe UI, Arial" font-size="13" fill="#111827">Documents</text>
  <text x="84" y="604" font-family="Segoe UI, Arial" font-size="13" fill="#111827">Media</text>
  <text x="84" y="629" font-family="Segoe UI, Arial" font-size="13" fill="#111827">Projects</text>
  <rect x="309" y="27" width="931" height="706" fill="#F6F7F9"/>
  <rect x="309" y="27" width="931" height="72" fill="#F3F4F6" stroke="#BFC7D1"/>
  <rect x="326" y="38" width="54" height="50" fill="#E5E7EB" stroke="#AEB7C2"/>
  <text x="344" y="70" font-family="Segoe UI Symbol, Arial" font-size="27" fill="#2563EB">⚙</text>
  <rect x="386" y="34" width="180" height="58" fill="#E5E7EB" stroke="#AEB7C2"/>
  <text x="426" y="59" font-family="Segoe UI, Arial" font-size="17" font-weight="700" fill="#111827">Compare</text>
  <text x="426" y="78" font-family="Segoe UI, Arial" font-size="12" fill="#5B6472">File time and size</text>
  <rect x="919" y="38" width="54" height="50" fill="#E5E7EB" stroke="#AEB7C2"/>
  <text x="938" y="70" font-family="Segoe UI Symbol, Arial" font-size="27" fill="#B91C1C">⚑</text>
  <rect x="981" y="34" width="196" height="58" fill="#E5E7EB" stroke="#AEB7C2"/>
  <text x="1030" y="59" font-family="Segoe UI, Arial" font-size="17" font-weight="700" fill="#111827">Synchronize</text>
  <text x="1030" y="78" font-family="Segoe UI, Arial" font-size="12" fill="#5B6472">TwoWay</text>
  <rect x="309" y="99" width="931" height="64" fill="#F6F7F9" stroke="#BFC7D1"/>
  <rect x="353" y="128" width="330" height="30" fill="#FFFFFF" stroke="#9CA3AF"/>
  <rect x="690" y="128" width="80" height="30" fill="#E5E7EB" stroke="#AEB7C2"/>
  <text x="709" y="148" font-family="Segoe UI, Arial" font-size="13" fill="#111827">Browse</text>
  <rect x="1015" y="128" width="330" height="30" fill="#FFFFFF" stroke="#9CA3AF"/>
  <rect x="1049" y="128" width="80" height="30" fill="#E5E7EB" stroke="#AEB7C2"/>
  <text x="1068" y="148" font-family="Segoe UI, Arial" font-size="13" fill="#111827">Browse</text>
  <rect x="309" y="163" width="411" height="520" fill="#FFFFFF" stroke="#BFC7D1"/>
  <rect x="720" y="163" width="120" height="520" fill="#F7F7F7" stroke="#9CA3AF"/>
  <rect x="840" y="163" width="400" height="520" fill="#FFFFFF" stroke="#BFC7D1"/>
  <rect x="310" y="164" width="409" height="27" fill="#ECEFF3"/>
  <rect x="721" y="164" width="118" height="27" fill="#ECEFF3"/>
  <rect x="841" y="164" width="398" height="27" fill="#ECEFF3"/>
  <text x="326" y="182" font-family="Segoe UI, Arial" font-size="13" font-weight="600" fill="#111827">Relative path</text>
  <text x="651" y="182" font-family="Segoe UI, Arial" font-size="13" font-weight="600" fill="#111827">Size</text>
  <text x="773" y="182" font-family="Segoe UI, Arial" font-size="13" font-weight="600" fill="#111827">Action</text>
  <text x="858" y="182" font-family="Segoe UI, Arial" font-size="13" font-weight="600" fill="#111827">Relative path</text>
  <text x="1175" y="182" font-family="Segoe UI, Arial" font-size="13" font-weight="600" fill="#111827">Size</text>
  <g font-family="Segoe UI, Arial" font-size="13" fill="#111827">
    <text x="326" y="214">archive.zip</text><text x="651" y="214">2.51 MB</text>
    <text x="326" y="239">changed.rtf</text><text x="651" y="239">208 B</text>
    <text x="326" y="264">image.png</text><text x="651" y="264">2.29 MB</text>
    <text x="326" y="289">Tools/FolderSyncr.exe</text><text x="651" y="289">450 KB</text>
    <text x="858" y="239">changed.rtf</text><text x="1175" y="239">2.32 KB</text>
    <text x="858" y="289">Tools/FolderSyncr.exe</text><text x="1175" y="289">450 KB</text>
  </g>
  <rect x="762" y="201" width="54" height="22" fill="#A7F3B6" stroke="#22C55E"/>
  <text x="781" y="217" font-family="Segoe UI, Arial" font-size="13" font-weight="700" fill="#111827">=&gt;</text>
  <rect x="762" y="226" width="54" height="22" fill="#A7F3B6" stroke="#22C55E"/>
  <text x="781" y="242" font-family="Segoe UI, Arial" font-size="13" font-weight="700" fill="#111827">&lt;=</text>
  <rect x="762" y="251" width="54" height="22" fill="#FDE68A" stroke="#D97706"/>
  <text x="785" y="267" font-family="Segoe UI, Arial" font-size="13" font-weight="700" fill="#111827">!</text>
  <rect x="309" y="683" width="931" height="50" fill="#F6F7F9" stroke="#BFC7D1"/>
  <text x="774" y="715" font-family="Segoe UI, Arial" font-size="13" font-weight="600" fill="#111827">Statistics: Items 2,938   Changes 33   Conflicts 1</text>
  <rect y="734" width="1240" height="26" fill="#F8FAFC" stroke="#BFC7D1"/>
  <text x="8" y="752" font-family="Segoe UI, Arial" font-size="12" fill="#5B6472">Choose two folders, compare, then sync.</text>
</svg>
